<?xml version="1.0" encoding="utf-8"?>
<!DOCTYPE svg PUBLIC "-//W3C//DTD SVG 20010904//EN" "http://www.w3.org/TR/2001/REC-SVG-20010904/DTD/svg10.dtd">
<svg version="1.0" xmlns="http://www.w3.org/2000/svg" width="93px" height="40px" viewBox="0 0 93 40" preserveAspectRatio="xMidYMid meet">
 <g fill="#000000">
  <path d="M10.73 36.27 c-3.78 -1.38 -6.98 -2.62 -7.13 -2.75 -0.23 -0.20 -0.27 -1.48 -0.27 -13.27 0 -14.68 -0.13 -13.25 1.33 -13.90 3.08 -1.33 13.17 -5.35 13.42 -5.35 0.18 0 5.70 1.35 12.25 3 8.53 2.15 11.98 3.07 12.12 3.28 0.15 0.20 0.22 1.08 0.22 3 l0 2.72 -1 0 -1 0 0 -2.25 c0 -1.23 -0.05 -2.25 -0.10 -2.25 -0.05 0 -4.83 -1.20 -10.63 -2.67 -5.80 -1.47 -10.63 -2.67 -10.73 -2.67 -0.15 0 -0.20 4.15 -0.20 16.83 l0 16.83 0.38 -0.08 c0.47 -0.12 21.13 -4.25 21.22 -4.25 0.03 0 0.07 -0.63 0.07 -1.42 l0 -1.42 1 0 1 0 0 1.92 c0 1.63 -0.05 1.97 -0.30 2.22 -0.23 0.23 -3.15 0.88 -12.13 2.67 -6.50 1.30 -12 2.37 -12.23 2.35 -0.23 -0.02 -3.50 -1.15 -7.27 -2.55z m6.43 -16.35 c0 -9.12 -0.05 -16.58 -0.12 -16.58 -0.08 0.02 -1.37 0.52 -2.88 1.15 l-2.75 1.13 0 14.45 0 14.47 2.67 0.98 c1.47 0.53 2.77 0.97 2.88 0.97 0.15 0.02 0.20 -3.40 0.20 -16.57z m-7 0.17 c0 -7.65 -0.03 -13.92 -0.07 -13.92 -0.02 0 -1.13 0.43 -2.45 0.98 l-2.40 0.97 -0.05 12.08 -0.03 12.07 2.28 0.85 c1.27 0.47 2.40 0.85 2.52 0.87 0.15 0.02 0.20 -2.87 0.20 -13.90z"/>
  <path d="M12.55 23.55 c-0.33 -0.13 -0.30 -4.77 0.03 -5.05 0.20 -0.17 0.30 -0.17 0.50 0 0.38 0.32 0.37 4.92 -0.02 5.07 -0.15 0.05 -0.27 0.10 -0.28 0.08 -0.02 0 -0.13 -0.05 -0.23 -0.10z"/>
  <path d="M83.13 33.40 c-0.58 -0.32 -0.80 -0.72 -0.80 -1.53 0 -1.22 1.08 -1.98 2.18 -1.53 1.30 0.55 1.27 2.68 -0.03 3.15 -0.67 0.23 -0.80 0.23 -1.35 -0.08z m1.62 -0.45 c0.90 -0.77 0.37 -2.45 -0.78 -2.45 -0.68 0 -1.05 0.23 -1.30 0.82 -0.58 1.42 0.95 2.62 2.08 1.63z"/>
  <path d="M88.68 33.45 c-0.23 -0.10 -0.43 -0.30 -0.48 -0.42 -0.03 -0.13 0.10 -0.12 0.42 0.08 0.67 0.38 1.38 0.18 1.38 -0.37 0 -0.33 -0.17 -0.50 -0.83 -0.83 -0.72 -0.37 -0.83 -0.48 -0.83 -0.92 0 -0.38 0.10 -0.55 0.42 -0.70 0.50 -0.23 1.27 -0.02 1.38 0.37 0.07 0.20 0.03 0.22 -0.15 0.05 -0.28 -0.28 -1.07 -0.27 -1.30 0.02 -0.28 0.33 -0.07 0.72 0.53 0.92 1.10 0.40 1.47 1.25 0.75 1.75 -0.45 0.32 -0.75 0.33 -1.28 0.05z"/>
  <path d="M45.17 31.83 l0 -1.67 0.63 0 c0.82 0 1.37 0.38 1.37 0.98 0 0.62 -0.28 0.85 -1.03 0.85 l-0.63 0 0 0.75 c0 0.42 -0.07 0.75 -0.17 0.75 -0.10 0 -0.17 -0.67 -0.17 -1.67z m1.70 -0.42 c0.25 -0.55 -0.07 -0.92 -0.80 -0.92 -0.55 0 -0.57 0.02 -0.57 0.67 0 0.65 0.02 0.67 0.58 0.67 0.47 0 0.63 -0.08 0.78 -0.42z"/>
  <path d="M49.17 33.43 c0 -0.03 0.23 -0.60 0.50 -1.25 0.28 -0.67 0.58 -1.40 0.68 -1.63 0.13 -0.38 0.20 -0.40 0.38 -0.20 0.28 0.30 1.33 2.97 1.22 3.08 -0.05 0.05 -0.17 -0.07 -0.28 -0.25 -0.15 -0.28 -0.33 -0.35 -1.08 -0.35 -0.75 0 -0.92 0.05 -1 0.33 -0.08 0.28 -0.42 0.48 -0.42 0.27z m2.10 -1.15 c-0.05 -0.22 -0.22 -0.68 -0.37 -1.05 l-0.28 -0.65 -0.28 0.67 c-0.62 1.43 -0.62 1.42 0.25 1.42 0.73 0 0.78 -0.02 0.68 -0.38z"/>
  <path d="M54.85 33.13 c-0.08 -0.22 -0.33 -0.87 -0.58 -1.45 -0.43 -1.08 -0.57 -1.73 -0.28 -1.42 0.08 0.08 0.30 0.57 0.48 1.07 0.18 0.50 0.42 1.15 0.53 1.42 l0.20 0.50 0.57 -1.42 c0.32 -0.77 0.65 -1.48 0.77 -1.58 0.22 -0.20 0.18 -0.08 -0.58 1.87 -0.55 1.40 -0.85 1.68 -1.10 1.02z"/>
  <path d="M59.23 31.83 c0 -0.97 0.02 -1.35 0.05 -0.87 0.03 0.47 0.03 1.27 0 1.75 -0.03 0.47 -0.05 0.08 -0.05 -0.88z"/>
  <path d="M62.17 31.83 c0 -0.92 0.07 -1.67 0.15 -1.67 0.07 0 0.43 0.45 0.80 1.02 l0.67 1.02 0.72 -1.02 c0.38 -0.55 0.78 -0.97 0.85 -0.92 0.20 0.12 0.18 3.23 -0.02 3.23 -0.08 0 -0.17 -0.62 -0.20 -1.37 l-0.05 -1.38 -0.57 0.88 c-0.30 0.47 -0.62 0.87 -0.68 0.87 -0.07 0 -0.38 -0.40 -0.68 -0.87 l-0.57 -0.88 -0.05 1.38 c-0.07 1.95 -0.37 1.72 -0.37 -0.30z"/>
  <path d="M68.20 31.88 l0.05 -1.63 0.88 -0.05 c0.52 -0.03 0.87 0.02 0.87 0.12 0 0.10 -0.33 0.18 -0.75 0.18 l-0.75 0 0 0.65 c0 0.67 0 0.67 0.72 0.73 l0.70 0.07 -0.70 0.02 -0.72 0.03 0 0.65 0 0.67 0.80 0.07 c0.77 0.05 0.77 0.05 -0.18 0.08 l-0.97 0.03 0.05 -1.62z"/>
  <path d="M72.67 31.83 c0 -0.92 0.07 -1.67 0.13 -1.67 0.07 0 0.62 0.65 1.20 1.45 l1.08 1.47 0.10 -1.50 0.08 -1.50 0.03 1.72 c0.02 0.93 -0.03 1.70 -0.10 1.70 -0.08 0 -0.58 -0.60 -1.13 -1.35 l-0.98 -1.35 -0.05 1.35 c-0.07 1.95 -0.37 1.68 -0.37 -0.32z"/>
  <path d="M78.83 32 l0 -1.50 -0.52 0 c-0.28 0 -0.47 -0.07 -0.40 -0.17 0.05 -0.08 0.55 -0.17 1.10 -0.17 0.55 0 0.98 0.07 0.98 0.17 0 0.10 -0.18 0.17 -0.42 0.17 -0.42 0 -0.42 0.02 -0.42 1.50 0 0.88 -0.07 1.50 -0.17 1.50 -0.10 0 -0.17 -0.62 -0.17 -1.50z"/>
  <path d="M28.67 27.93 c-1.35 -0.28 -2.40 -0.88 -3.35 -1.88 -0.98 -1.03 -1.38 -1.88 -1.67 -3.45 -0.52 -3.05 0.95 -5.97 3.65 -7.23 0.85 -0.40 1.15 -0.45 2.78 -0.45 1.67 0 1.93 0.05 2.88 0.48 l1.03 0.48 0 1.13 c0 0.63 -0.03 1.15 -0.08 1.15 -0.05 0 -0.40 -0.25 -0.80 -0.55 -0.97 -0.73 -2.02 -1.02 -3.42 -0.92 -2.65 0.20 -4.27 1.97 -4.28 4.72 0 2.17 0.92 3.65 2.73 4.47 0.83 0.37 2.80 0.45 3.57 0.13 0.45 -0.17 0.45 -0.18 0.45 -1.83 l0 -1.67 -1.28 -0.05 -1.30 -0.05 -0.05 -0.88 -0.05 -0.88 2.22 0.05 2.22 0.05 0.05 3.13 0.03 3.13 -0.90 0.42 c-0.85 0.38 -2.43 0.75 -3.18 0.72 -0.18 0 -0.75 -0.10 -1.25 -0.22z"/>
  <path d="M49.30 27.90 c-0.25 -0.07 -0.30 -0.28 -0.30 -1.05 l0 -0.97 0.82 0.08 c0.72 0.07 0.88 0.02 1.25 -0.35 l0.43 -0.43 0 -5.10 0 -5.08 1.02 0 1 0 -0.05 5.30 c-0.05 4.98 -0.07 5.32 -0.40 5.95 -0.50 0.97 -1.47 1.58 -2.58 1.67 -0.48 0.03 -1.03 0.03 -1.18 -0.02z"/>
  <path d="M64.67 27.78 c-1.85 -0.53 -3.17 -1.65 -4.05 -3.43 -0.50 -1.03 -0.53 -1.18 -0.53 -3.02 0 -1.73 0.05 -2 0.45 -2.88 0.55 -1.17 1.92 -2.57 3.05 -3.12 0.73 -0.37 1.07 -0.42 2.67 -0.42 1.68 0 1.90 0.03 2.72 0.47 4.70 2.47 4.68 9.65 -0.02 11.95 -1.23 0.60 -3.08 0.80 -4.28 0.45z m3.70 -2.23 c2.72 -1.48 3.07 -5.85 0.63 -7.92 -0.80 -0.70 -1.63 -0.97 -2.93 -0.97 -1.63 0.02 -2.98 0.85 -3.77 2.40 -0.43 0.85 -0.60 2.92 -0.30 3.87 0.87 2.77 3.85 3.98 6.37 2.62z"/>
  <path d="M40.67 21.42 l0 -6.42 1 0 1 0 0 6.42 0 6.42 -1 0 -1 0 0 -6.42z"/>
  <path d="M78.95 27.72 c-0.07 -0.05 -0.12 -2.95 -0.12 -6.42 l0 -6.30 1.05 0 1.03 0.02 3.58 4.83 3.58 4.83 0.05 -4.85 0.03 -4.83 1 0 1 0 -0.03 6.38 -0.05 6.37 -0.98 0 -1 0 -3.38 -4.58 c-1.87 -2.52 -3.50 -4.70 -3.63 -4.83 -0.22 -0.20 -0.25 0.37 -0.25 4.63 l0 4.87 -0.88 0 c-0.50 0 -0.95 -0.05 -1 -0.12z"/>
  <path d="M65.67 13.22 c0 -0.08 0.28 -0.65 0.63 -1.30 l0.63 -1.17 0.98 -0.05 0.97 -0.05 -0.30 0.47 c-0.17 0.25 -0.60 0.87 -0.95 1.35 -0.58 0.80 -0.70 0.87 -1.30 0.87 -0.37 0 -0.67 -0.05 -0.67 -0.12z"/>
 </g>
 <g fill="#ffffff">
  <path d="M0 20 l0 -20 46.50 0 46.50 0 0 20 0 20 -46.50 0 -46.50 0 0 -20z m30.23 16.47 c8.98 -1.78 11.90 -2.43 12.13 -2.67 0.25 -0.25 0.30 -0.58 0.30 -2.22 l0 -1.92 -1 0 -1 0 0 1.42 c0 0.78 -0.03 1.42 -0.07 1.42 -0.08 0 -20.75 4.13 -21.22 4.25 l-0.38 0.08 0 -16.83 c0 -12.68 0.05 -16.83 0.20 -16.83 0.10 0 4.93 1.20 10.73 2.67 5.80 1.47 10.58 2.67 10.63 2.67 0.05 0 0.10 1.02 0.10 2.25 l0 2.25 1 0 1 0 0 -2.72 c0 -1.92 -0.07 -2.80 -0.22 -3 -0.13 -0.22 -3.58 -1.13 -12.12 -3.28 -6.55 -1.65 -12.07 -3 -12.25 -3 -0.25 0 -10.33 4.02 -13.42 5.35 -1.47 0.65 -1.33 -0.78 -1.33 13.90 0 11.78 0.03 13.07 0.27 13.27 0.35 0.32 13.87 5.28 14.40 5.30 0.23 0.02 5.73 -1.05 12.23 -2.35z m54.25 -2.98 c1.30 -0.47 1.33 -2.60 0.03 -3.15 -1.10 -0.45 -2.18 0.32 -2.18 1.53 0 0.82 0.22 1.22 0.80 1.53 0.55 0.32 0.68 0.32 1.35 0.08z m5.48 -0.08 c0.72 -0.50 0.35 -1.35 -0.75 -1.75 -0.60 -0.20 -0.82 -0.58 -0.53 -0.92 0.23 -0.28 1.02 -0.30 1.30 -0.02 0.18 0.17 0.22 0.15 0.15 -0.05 -0.12 -0.38 -0.88 -0.60 -1.38 -0.37 -0.32 0.15 -0.42 0.32 -0.42 0.70 0 0.43 0.12 0.55 0.83 0.92 0.67 0.33 0.83 0.50 0.83 0.83 0 0.55 -0.72 0.75 -1.38 0.37 -0.32 -0.20 -0.45 -0.22 -0.42 -0.08 0.08 0.25 0.77 0.63 1.13 0.63 0.15 0 0.43 -0.12 0.63 -0.27z m-44.47 -0.65 l0 -0.75 0.63 0 c0.75 0 1.03 -0.23 1.03 -0.85 0 -0.60 -0.55 -0.98 -1.37 -0.98 l-0.63 0 0 1.67 c0 1 0.07 1.67 0.17 1.67 0.10 0 0.17 -0.33 0.17 -0.75z m4.08 0.42 c0.08 -0.28 0.25 -0.33 1 -0.33 0.75 0 0.93 0.07 1.08 0.35 0.12 0.18 0.23 0.30 0.28 0.25 0.12 -0.12 -0.93 -2.78 -1.22 -3.08 -0.18 -0.20 -0.25 -0.18 -0.38 0.20 -0.10 0.23 -0.40 0.97 -0.68 1.63 -0.57 1.33 -0.55 1.32 -0.35 1.32 0.08 0 0.22 -0.15 0.27 -0.33z m6.37 -1.05 c0.77 -1.95 0.80 -2.07 0.58 -1.87 -0.12 0.10 -0.45 0.82 -0.77 1.58 l-0.57 1.42 -0.20 -0.50 c-0.12 -0.27 -0.35 -0.92 -0.53 -1.42 -0.18 -0.50 -0.40 -0.98 -0.48 -1.07 -0.28 -0.32 -0.15 0.33 0.28 1.42 0.25 0.58 0.50 1.23 0.58 1.45 0.25 0.67 0.55 0.38 1.10 -1.02z m3.33 -1.15 c-0.03 -0.48 -0.05 -0.10 -0.05 0.87 0 0.97 0.02 1.35 0.05 0.88 0.03 -0.48 0.03 -1.28 0 -1.75z m3.25 1.17 l0.05 -1.38 0.57 0.88 c0.30 0.47 0.62 0.87 0.68 0.87 0.07 0 0.38 -0.40 0.68 -0.87 l0.57 -0.88 0.05 1.38 c0.03 0.75 0.12 1.37 0.20 1.37 0.20 0 0.22 -3.12 0.02 -3.23 -0.07 -0.05 -0.47 0.37 -0.85 0.92 l-0.72 1.02 -0.67 -1.02 c-0.37 -0.57 -0.73 -1.02 -0.80 -1.02 -0.08 0 -0.15 0.75 -0.15 1.67 0 2.02 0.30 2.25 0.37 0.30z m6.77 1.25 l-0.80 -0.07 0 -0.67 0 -0.65 0.72 -0.03 0.70 -0.02 -0.70 -0.07 c-0.72 -0.07 -0.72 -0.07 -0.72 -0.73 l0 -0.65 0.75 0 c0.42 0 0.75 -0.08 0.75 -0.18 0 -0.10 -0.35 -0.15 -0.87 -0.12 l-0.88 0.05 -0.05 1.63 -0.05 1.62 0.97 -0.03 c0.95 -0.03 0.95 -0.03 0.18 -0.08z m3.73 -1.23 l0.05 -1.35 0.98 1.35 c0.55 0.75 1.05 1.35 1.13 1.35 0.07 0 0.12 -0.77 0.10 -1.70 l-0.03 -1.72 -0.08 1.50 -0.10 1.50 -1.08 -1.47 c-0.58 -0.80 -1.13 -1.45 -1.20 -1.45 -0.07 0 -0.13 0.75 -0.13 1.67 0 2 0.30 2.27 0.37 0.32z m6.13 -0.15 c0 -1.48 0 -1.50 0.42 -1.50 0.23 0 0.42 -0.07 0.42 -0.17 0 -0.10 -0.43 -0.17 -0.98 -0.17 -0.55 0 -1.05 0.08 -1.10 0.17 -0.07 0.10 0.12 0.17 0.40 0.17 l0.52 0 0 1.50 c0 0.88 0.07 1.50 0.17 1.50 0.10 0 0.17 -0.62 0.17 -1.50z m-47.95 -4 c0.53 -0.08 1.38 -0.33 1.88 -0.57 l0.90 -0.42 -0.03 -3.13 -0.05 -3.13 -2.22 -0.05 -2.22 -0.05 0.05 0.88 0.05 0.88 1.30 0.05 1.28 0.05 0 1.67 c0 1.65 0 1.67 -0.45 1.83 -0.27 0.10 -1 0.18 -1.65 0.18 -1.98 0 -3.37 -0.82 -4.18 -2.50 -0.40 -0.80 -0.47 -1.15 -0.47 -2.28 0.02 -2.75 1.63 -4.52 4.28 -4.72 1.40 -0.10 2.45 0.18 3.42 0.92 0.40 0.30 0.75 0.55 0.80 0.55 0.05 0 0.08 -0.52 0.08 -1.15 l0 -1.13 -1.03 -0.48 c-0.95 -0.43 -1.22 -0.48 -2.88 -0.48 -1.63 0 -1.93 0.05 -2.78 0.45 -2.70 1.27 -4.17 4.18 -3.65 7.23 0.28 1.57 0.68 2.42 1.67 3.45 0.95 1 2 1.60 3.35 1.88 1.17 0.27 1.38 0.27 2.55 0.07z m20.85 -0.62 c0.35 -0.25 0.82 -0.77 1 -1.13 0.33 -0.63 0.35 -0.97 0.40 -5.95 l0.05 -5.30 -1 0 -1.02 0 0 5.08 0 5.10 -0.43 0.43 c-0.37 0.37 -0.53 0.42 -1.25 0.35 l-0.82 -0.08 0 0.97 c0 1.12 0.08 1.17 1.48 1.07 0.67 -0.05 1.10 -0.20 1.58 -0.53z m16.88 -0.05 c4.70 -2.30 4.72 -9.48 0.02 -11.95 -0.82 -0.43 -1.03 -0.47 -2.72 -0.47 -1.60 0 -1.93 0.05 -2.67 0.42 -1.13 0.55 -2.50 1.95 -3.05 3.12 -0.40 0.88 -0.45 1.15 -0.45 2.88 0 1.83 0.03 1.98 0.53 3.02 0.60 1.20 1.78 2.48 2.70 2.93 1.83 0.87 3.90 0.90 5.63 0.05z m-26.28 -5.92 l0 -6.42 -1 0 -1 0 0 6.42 0 6.42 1 0 1 0 0 -6.42z m38.17 1.55 c0 -4.27 0.03 -4.83 0.25 -4.63 0.13 0.13 1.77 2.32 3.63 4.83 l3.38 4.58 1 0 0.98 0 0.05 -6.37 0.03 -6.38 -1 0 -1 0 -0.03 4.83 -0.05 4.85 -3.58 -4.83 -3.58 -4.83 -1.03 -0.02 -1.05 0 0 6.30 c0 3.47 0.05 6.37 0.12 6.42 0.05 0.07 0.50 0.12 1 0.12 l0.88 0 0 -4.87z m-13.20 -10.50 c0.35 -0.48 0.78 -1.10 0.95 -1.35 l0.30 -0.47 -0.97 0.05 -0.98 0.05 -0.63 1.17 c-0.35 0.65 -0.63 1.22 -0.63 1.30 0 0.07 0.30 0.12 0.67 0.12 0.60 0 0.72 -0.07 1.30 -0.87z"/>
  <path d="M14.08 35.52 l-2.67 -0.98 0 -14.47 0 -14.45 2.75 -1.13 c1.52 -0.63 2.80 -1.13 2.88 -1.15 0.07 0 0.12 7.47 0.12 16.58 0 13.17 -0.05 16.58 -0.20 16.57 -0.12 0 -1.42 -0.43 -2.88 -0.97z m-1.02 -11.95 c0.38 -0.15 0.40 -4.75 0.02 -5.07 -0.20 -0.17 -0.30 -0.17 -0.50 0 -0.33 0.28 -0.37 4.92 -0.03 5.05 0.10 0.05 0.22 0.10 0.23 0.10 0.02 0.02 0.13 -0.03 0.28 -0.08z"/>
  <path d="M7.45 33.12 l-2.28 -0.85 0.03 -12.07 0.05 -12.08 2.40 -0.97 c1.32 -0.55 2.43 -0.98 2.45 -0.98 0.03 0 0.07 6.27 0.07 13.92 0 11.03 -0.05 13.92 -0.20 13.90 -0.12 -0.02 -1.25 -0.40 -2.52 -0.87z"/>
  <path d="M83.03 33 c-0.48 -0.45 -0.62 -1.07 -0.37 -1.68 0.58 -1.40 2.53 -0.93 2.53 0.62 0 1.17 -1.35 1.83 -2.17 1.07z"/>
  <path d="M45.50 31.17 c0 -0.65 0.02 -0.67 0.57 -0.67 0.73 0 1.05 0.37 0.80 0.92 -0.15 0.33 -0.32 0.42 -0.78 0.42 -0.57 0 -0.58 -0.02 -0.58 -0.67z"/>
  <path d="M49.93 32.30 c0.07 -0.22 0.25 -0.68 0.40 -1.05 l0.28 -0.67 0.28 0.65 c0.58 1.38 0.57 1.43 -0.32 1.43 -0.73 0 -0.77 -0.02 -0.65 -0.37z"/>
  <path d="M64.97 25.95 c-1.38 -0.40 -2.50 -1.52 -2.97 -3.02 -0.30 -0.95 -0.13 -3.02 0.30 -3.87 0.78 -1.55 2.13 -2.38 3.77 -2.40 1.30 0 2.13 0.27 2.93 0.97 1.87 1.58 2.18 4.75 0.68 6.80 -0.98 1.33 -3.02 1.98 -4.72 1.52z"/>
 </g>
</svg>